<svg width="72" height="71" viewBox="0 0 72 71" fill="none" xmlns="http://www.w3.org/2000/svg">
<g filter="url(#filter0_d_3_161)">
<path d="M35.8571 44.1429C45.246 44.1429 52.8571 36.5317 52.8571 27.1429C52.8571 17.754 45.246 10.1429 35.8571 10.1429C26.4683 10.1429 18.8571 17.754 18.8571 27.1429C18.8571 36.5317 26.4683 44.1429 35.8571 44.1429Z" fill="#FE724C"/>
</g>
<path d="M43.2526 26.0968C43.1738 25.4166 42.8484 24.7855 42.3345 24.3158C41.8206 23.8461 41.1515 23.5682 40.446 23.5316V23.3316C40.4466 22.7627 40.3312 22.1994 40.1063 21.6738C39.8815 21.1482 39.5517 20.6708 39.1359 20.2691C38.7209 19.8662 38.2278 19.5467 37.6851 19.3289C37.1423 19.1111 36.5605 18.9993 35.973 19C34.7871 19.0004 33.6499 19.457 32.8114 20.2694C31.9728 21.0818 31.5015 22.1836 31.5011 23.3325V23.5347C30.8049 23.5826 30.148 23.8654 29.6447 24.3337C29.1414 24.8021 28.8235 25.4265 28.746 26.0984L28 32.682C28.0037 33.5648 28.3688 34.41 29.0152 35.0321C29.6617 35.6542 30.5367 36.0023 31.4479 36H40.5523C41.4635 36.0023 42.3383 35.6542 42.9848 35.0321C43.6312 34.41 43.9963 33.5648 44 32.682L43.2526 26.0968ZM32.8144 23.3396C32.8142 22.9378 32.8958 22.5398 33.0544 22.1686C33.2131 21.7973 33.4458 21.46 33.739 21.1758C34.0323 20.8916 34.3803 20.6661 34.7635 20.5123C35.1467 20.3585 35.5574 20.2795 35.9722 20.2795C36.3871 20.2791 36.7979 20.358 37.1812 20.5119C37.5644 20.6657 37.9127 20.8912 38.2058 21.1757C38.4996 21.4596 38.7325 21.7968 38.8914 22.1682C39.0503 22.5395 39.132 22.9376 39.1317 23.3396V23.5252H32.8144V23.3396ZM33.4374 27.8403C33.3332 27.8404 33.2299 27.8206 33.1336 27.782C33.0373 27.7434 32.9498 27.6868 32.8761 27.6154C32.8024 27.544 32.744 27.4592 32.7042 27.3659C32.6644 27.2726 32.6439 27.1726 32.644 27.0717C32.6439 26.9707 32.6644 26.8707 32.7042 26.7774C32.744 26.6841 32.8024 26.5993 32.8761 26.5279C32.9498 26.4565 33.0373 26.3999 33.1336 26.3614C33.2299 26.3228 33.3332 26.303 33.4374 26.3031C33.5418 26.3029 33.6452 26.3225 33.7416 26.3611C33.8381 26.3996 33.9258 26.4561 33.9997 26.5275C34.0736 26.5989 34.1323 26.6837 34.1724 26.777C34.2125 26.8704 34.2331 26.9706 34.2332 27.0717C34.2331 27.1728 34.2125 27.2729 34.1724 27.3662C34.1323 27.4596 34.0736 27.5444 33.9997 27.6158C33.9258 27.6871 33.8381 27.7437 33.7416 27.7822C33.6452 27.8207 33.5418 27.8405 33.4374 27.8403ZM38.5644 27.8403C38.46 27.8405 38.3566 27.8207 38.2602 27.7822C38.1637 27.7437 38.076 27.6871 38.0021 27.6158C37.9282 27.5444 37.8695 27.4596 37.8294 27.3662C37.7893 27.2729 37.7687 27.1728 37.7686 27.0717C37.7687 26.9706 37.7893 26.8704 37.8294 26.777C37.8695 26.6837 37.9282 26.5989 38.0021 26.5275C38.076 26.4561 38.1637 26.3996 38.2602 26.3611C38.3566 26.3225 38.46 26.3029 38.5644 26.3031C38.6686 26.303 38.7717 26.3228 38.868 26.3614C38.9643 26.3999 39.052 26.4565 39.1257 26.5279C39.1994 26.5993 39.2578 26.6841 39.2976 26.7774C39.3374 26.8707 39.3579 26.9707 39.3578 27.0717C39.3579 27.1726 39.3374 27.2726 39.2976 27.3659C39.2578 27.4592 39.1994 27.544 39.1257 27.6154C39.052 27.6868 38.9643 27.7434 38.868 27.782C38.7717 27.8206 38.6686 27.8404 38.5644 27.8403Z" fill="white"/>
<defs>
<filter id="filter0_d_3_161" x="0.64286" y="0.428566" width="70.4286" height="70.4286" filterUnits="userSpaceOnUse" color-interpolation-filters="sRGB">
<feFlood flood-opacity="0" result="BackgroundImageFix"/>
<feColorMatrix in="SourceAlpha" type="matrix" values="0 0 0 0 0 0 0 0 0 0 0 0 0 0 0 0 0 0 127 0" result="hardAlpha"/>
<feOffset dy="8.5"/>
<feGaussianBlur stdDeviation="9.10714"/>
<feColorMatrix type="matrix" values="0 0 0 0 0.996078 0 0 0 0 0.447059 0 0 0 0 0.298039 0 0 0 0.4 0"/>
<feBlend mode="normal" in2="BackgroundImageFix" result="effect1_dropShadow_3_161"/>
<feBlend mode="normal" in="SourceGraphic" in2="effect1_dropShadow_3_161" result="shape"/>
</filter>
</defs>
</svg>
